<svg width="813" height="136" viewBox="0 0 813 136" fill="none" xmlns="http://www.w3.org/2000/svg">
<path fill-rule="evenodd" clip-rule="evenodd" d="M68 92C81.2548 92 92 81.2548 92 68C92 54.7452 81.2548 44 68 44C54.7452 44 44 54.7452 44 68C44 81.2548 54.7452 92 68 92ZM68 100C85.6731 100 100 85.6731 100 68C100 50.3269 85.6731 36 68 36C50.3269 36 36 50.3269 36 68C36 85.6731 50.3269 100 68 100Z" fill="white"/>
<path d="M92 124C92 110.745 81.2548 100 68 100C54.7452 100 44 110.745 44 124H36C36 106.327 50.3269 92 68 92C85.6731 92 100 106.327 100 124H92Z" fill="white"/>
<path d="M44 12C44 25.2548 54.7452 36 68 36C81.2548 36 92 25.2548 92 12L100 12C100 29.6731 85.6731 44 68 44C50.3269 44 36 29.6731 36 12L44 12Z" fill="white"/>
<path fill-rule="evenodd" clip-rule="evenodd" d="M68 128C101.137 128 128 101.137 128 68C128 34.8629 101.137 8 68 8C34.8629 8 8 34.8629 8 68C8 101.137 34.8629 128 68 128ZM68 136C105.555 136 136 105.555 136 68C136 30.4446 105.555 0 68 0C30.4446 0 0 30.4446 0 68C0 105.555 30.4446 136 68 136Z" fill="white"/>
<circle cx="68" cy="68" r="8" fill="white"/>
<path d="M804.464 37C808.602 37 812.02 40.15 812.02 43.93V55H800.686V49.78C800.686 48.88 799.877 48.16 798.887 48.16H779.098C778.108 48.16 777.298 48.88 777.298 49.78V87.22C777.298 88.12 778.108 88.84 779.098 88.84H798.887C799.877 88.84 800.686 88.12 800.686 87.22V74.08H788.992V62.92H812.02V93.07C812.02 96.85 808.602 100 804.464 100H773.521C769.383 100 765.965 96.85 765.965 93.07V43.93C765.965 40.15 769.383 37 773.521 37H804.464Z" fill="white"/>
<path d="M690.403 37C694.541 37 697.959 40.15 697.959 43.93V64.36C697.959 67.24 696.25 69.49 693.462 70.3C696.25 71.11 697.959 73.36 697.959 76.24V100H686.625V77.68C686.625 76.42 686.086 75.88 684.826 75.88H663.418V100H652.084V37H690.403ZM686.625 49.78C686.625 48.88 685.816 48.16 684.826 48.16H663.418V64.72H684.826C686.086 64.72 686.625 64.18 686.625 62.92V49.78Z" fill="white"/>
<path d="M576.527 37C580.665 37 584.083 40.15 584.083 43.93V93.07C584.083 96.85 580.665 100 576.527 100H545.583C541.445 100 538.027 96.85 538.027 93.07V43.93C538.027 40.15 541.445 37 545.583 37H576.527ZM572.749 49.78C572.749 48.88 571.939 48.16 570.95 48.16H551.16C550.171 48.16 549.361 48.88 549.361 49.78V87.22C549.361 88.12 550.171 88.84 551.16 88.84H570.95C571.939 88.84 572.749 88.12 572.749 87.22V49.78Z" fill="white"/>
<path d="M462.466 37C466.604 37 470.022 40.15 470.022 43.93V62.56C470.022 65.44 468.313 67.69 465.524 68.5C468.313 69.31 470.022 71.56 470.022 74.44V93.07C470.022 96.85 466.604 100 462.466 100H424.146V37H462.466ZM458.688 49.78C458.688 48.88 457.878 48.16 456.889 48.16H435.48V62.92H456.889C458.148 62.92 458.688 62.38 458.688 61.12V49.78ZM458.688 75.88C458.688 74.62 458.148 74.08 456.889 74.08H435.48V88.84H456.889C457.878 88.84 458.688 88.12 458.688 87.22V75.88Z" fill="white"/>
<path d="M360.515 37L339.556 80.2V100H328.222V80.2L307.263 37H320.037L333.889 66.79L347.742 37H360.515Z" fill="white"/>
<path d="M237.52 37C241.657 37 245.076 40.15 245.076 43.93V55H233.742V49.78C233.742 48.88 232.932 48.16 231.943 48.16H212.153C211.164 48.16 210.354 48.88 210.354 49.78V87.22C210.354 88.12 211.164 88.84 212.153 88.84H231.943C232.932 88.84 233.742 88.12 233.742 87.22V82H245.076V93.07C245.076 96.85 241.657 100 237.52 100H206.576C202.438 100 199.02 96.85 199.02 93.07V43.93C199.02 40.15 202.438 37 206.576 37H237.52Z" fill="white"/>
</svg>
